<svg height="512" viewBox="0 0 60 60" width="512" xmlns="http://www.w3.org/2000/svg"><g id="097---Download-Profile" fill="none" fill-rule="evenodd"><g id="Icons" transform="translate(1)"><path id="Shape" d="m34 55v2c.0032948 1.1032019.8967981 1.9967052 2 2h-36v-3c.0000942-3.0097475 1.85798795-5.707075 4.67-6.78l9.75-3.72c1.5547763-.5879406 2.5825219-2.0777735 2.58-3.74v-2c.0143366-1.1351592-.4678006-2.2199679-1.32-2.97-2.474269-2.0693281-3.8362707-5.178245-3.68-8.4 0-.13 0-.27.01-.39h-1.02c-1.65685425 0-3-1.3431458-3-3v-3c-.00303029-1.2050478.71881172-2.2937276 1.83-2.76-2.607-7.82.71-17.216 9.05-18.16 5.172-.6 11.708 1.66 13.29 6.69.322.846-.071.51.64.78 3.942 1.55 4.853 6.356 3.83 10.45l-.22.35c.9857971.5158276 1.6025986 1.5374052 1.6 2.65v3c0 1.6568542-1.3431458 3-3 3h-1.02c.01.12.01.26.01.39.1562707 3.221755-1.205731 6.3306719-3.68 8.4-.8521994.7500321-1.3343366 1.8348408-1.32 2.97v2c-.0025219 1.6622265 1.0252237 3.1520594 2.58 3.74 7.726 2.946 6.881 2.641 7.11 2.67l5.17 4.83h-7.86c-1.1032019.0032948-1.9967052.8967981-2 2z" fill="#cad9fc" fill-rule="nonzero"/><path id="Shape" d="m34 55v2c.0032948 1.1032019.8967981 1.9967052 2 2h-36v-3c.0000942-3.0097475 1.85798795-5.707075 4.67-6.78l9.75-3.72c1.5547763-.5879406 2.5825219-2.0777735 2.58-3.74v-2c.0143366-1.1351592-.4678006-2.2199679-1.32-2.97-2.474269-2.0693281-3.8362707-5.178245-3.68-8.4 0-.13 0-.27.01-.39h-1.02c-1.65685425 0-3-1.3431458-3-3v-3c-.00303029-1.2050478.71881172-2.2937276 1.83-2.76-2.607-7.82.71-17.216 9.05-18.16 4.707.406 9.38 2.749 10.47 7.32 3.171.747 5.7 4.952 4.29 10.6l-.22.35c.9857971.5158276 1.6025986 1.5374052 1.6 2.65v3c0 1.6568542-1.3431458 3-3 3h-1.02c.01.12.01.26.01.39.1562707 3.221755-1.205731 6.3306719-3.68 8.4-.8521994.7500321-1.3343366 1.8348408-1.32 2.97v2c-.0025219 1.6622265 1.0252237 3.1520594 2.58 3.74l6.95 2.65 3.57.41 4.76 4.44h-7.86c-1.1032019.0032948-1.9967052.8967981-2 2z" fill="#e8edfc" fill-rule="nonzero"/><path id="Shape" d="m45.93 55c0-.02-.01-.05-.01-.07" stroke="#000" stroke-linecap="round" stroke-linejoin="round" stroke-width="2"/><g fill-rule="nonzero"><rect id="Rectangle-path" fill="#cad9fc" height="6" rx="2" width="24" x="34" y="53"/><path id="Shape" d="m35.75 53c-1.0319018.0763466-1.8113071.9670956-1.75 2v2c-.0613071 1.0329044.7180982 1.9236534 1.75 2h17.5c1.031642-.076867 1.8107568-.967284 1.75-2v-2c.0607568-1.032716-.718358-1.923133-1.75-2z" fill="#e8edfc"/><path id="Shape" d="m56.84 44.87-10.84 10.13c-2.095-1.956.082.078-10.84-10.13-.1227627-.1149648-.1806662-.2832382-.1546406-.4494015.0260256-.1661634.1326061-.3086742.2846406-.3805985.17-.057-.057-.04 2.77-.04.5463062-.0065909.9844458-.4536722.98-1v-11c-.0083417-1.0924337.8676207-1.9862728 1.96-2h10.06c1.0923793.0137272 1.9683417.9075663 1.96 2v11c-.0010852.4722189.3283095.880835.79.98.8989538.0561308 1.8003133.0628075 2.7.02.2054288.0025723.3883766.1305432.4612385.3226337.0728618.1920904.0208068.4092004-.1312385.5473663z" fill="#cad9fc"/><path id="Shape" d="m53.84 44.87-9.34 8.73-9.34-8.73c-.1520453-.1381659-.2041003-.3552759-.1312385-.5473663.0728619-.1920905.2558097-.3200614.4612385-.3226337h2.57c.5463062-.0065909.9844458-.4536722.98-1v-11c-.0083417-1.0924337.8676207-1.9862728 1.96-2h7.06c1.0923793.0137272 1.9683417.9075663 1.96 2v11c-.0044458.5463278.4336938.9934091.98 1 2.272 0 2.52-.015 2.62.01.1791253.0458187.3189985.1856889.364821.3648132s-.0097022.3689801-.144821.4951868z" fill="#e8edfc"/></g></g><g fill-rule="nonzero"><path id="Shape" d="m7.67 49.22 9.75-3.72c1.5547763-.5879406 2.5825219-2.0777735 2.58-3.74v-2c.0143366-1.1351592-.4678006-2.2199679-1.32-2.97-2.474269-2.0693281-3.8362707-5.178245-3.68-8.4 0-.13 0-.27.01-.39h-1.02c-1.6568542 0-3-1.3431458-3-3v-3c-.0030303-1.2050478.7188117-2.2937276 1.83-2.76-2.607-7.82.71-17.216 9.05-18.16.063-.007.128-.009.191-.015-1.0612134-.10766763-2.1308457-.10263958-3.191.015-8.34.944-11.657 10.34-9.05 18.16-1.11118828.4662724-1.83303029 1.5549522-1.83 2.76v3c0 1.6568542 1.34314575 3 3 3h1.02c-.01.12-.01.26-.01.39-.1562707 3.221755 1.205731 6.3306719 3.68 8.4.8521994.7500321 1.3343366 1.8348408 1.32 2.97v2c.0025219 1.6622265-1.0252237 3.1520594-2.58 3.74l-9.75 3.72c-2.81201205 1.072925-4.6699058 3.7702525-4.67 6.78v3h3v-3c.0000942-3.0097475 1.85798795-5.707075 4.67-6.78z" fill="#fff" transform="translate(1)"/><g id="Layer_10" transform="translate(0 -1)"><path id="Shape" d="m11.2 6.525 1.7 1.064c-1.2840435 2.1394556-1.9423047 4.5961557-1.9 7.091h-2c-.0446779-2.8707.71758468-5.69626877 2.2-8.155z" fill="#fff"/><g fill="#428dff"><path id="Shape" d="m10.511 11.712c-.55228475 0-1-.4477153-1-1s.44771525-1 1-1c.5522847 0 1 .4477153 1 1s-.4477153 1-1 1z"/><path id="Shape" d="m57 53h-5.326l6.848-6.4c.4515908-.4186547.6014318-1.0707818.3778764-1.6445666-.2235554-.5737849-.7750856-.952647-1.3908764-.9554334h-2.489v-11c.0083175-1.6454749-1.3165527-2.9873422-2.962-3h-10.058c-1.6454473.0126578-2.9703175 1.3545251-2.962 3l.02 11h-2.567c-.5937716-.0008177-1.1313518.3509872-1.3682869.8954384-.236935.5444512-.127993 1.1776105.2772869 1.6115616l-2.47-.943c-1.1678965-.4371905-1.9386547-1.5569864-1.93-2.804v-2c-.0114824-.8383512.3404322-1.6406436.965-2.2 2.5483705-2.1123118 4.0233806-5.2500071 4.024-8.56 1.0644998.0055887 2.0873187-.4133702 2.8420123-1.1641223.7546935-.7507521 1.1790024-1.7713632 1.1789877-2.8358777v-3c.0025292-1.1482803-.4906411-2.2417842-1.353-3 1.043-4.551-.138-9.691-4.49-11.383-1.712-5.335-7.406-7.617-12.967-7.617-4.072907-.04468011-7.8699545 2.05318865-10 5.525-.1560765.22787608-.2067945.51179867-.1392657.77961808.0675287.26781941.2468029.49375111.4922657.62038192.4695524.24314646 1.0466546.09919222 1.347-.336 1.7625721-2.88762109 4.9172224-4.63180065 8.3-4.589 4.79 0 10.053 1.956 11.167 6.631.156.656.745.726 1.072.851 3.275 1.267 3.988 5.106 3.343 8.614-.251836-.0670363-.5113953-.100658-.772-.1-.5522847 0-1 .4477153-1 1s.4477153 1 1 1c1.1045695 0 2 .8954305 2 2v3c0 1.1045695-.8954305 2-2 2h-1.02c-.2798661-.0009197-.5473108.1154816-.7373604.3209252-.1900495.2054435-.2853104.4811269-.2626396.7600748.008.095.007.206.007.309.1625488 2.9285999-1.0710934 5.7612293-3.326 7.637-1.0799209.9389735-1.6912291 2.3060943-1.671 3.737v2c.0058291 2.0746817 1.2868338 3.932218 3.224 4.675l6.95 2.65c.1.038-.319-.329 3.152 2.915h-5.326c-1.6568542 0-3 1.3431458-3 3 0 2.1-.056 2.325.184 3h-32.184v-2c.00896595-2.5921569 1.60745546-4.9132621 4.026-5.846l9.747-3.718c1.9385031-.7421759 3.2208228-2.6002878 3.227-4.676v-2c.017974-1.4309297-.5950957-2.797168-1.676-3.735-2.2538395-1.8755493-3.4867118-4.7073725-3.324-7.635.0768929-.3761891-.0164492-.7671275-.255-1.068-.359-.389-.663-.322-1.755-.322-1.1045695 0-2-.8954305-2-2v-3c-.00240653-.5311671.2075343-1.0412743.58313-1.41687s.8857029-.5855365 1.41687-.58313c.5522847 0 1-.4477153 1-1s-.4477153-1-1-1c-.1578355.00633-.3151324.0223603-.471.048-.3521011-1.4290927-.5264196-2.8961895-.519-4.368 0-.5522847-.4477153-1-1-1-.55228475 0-1 .4477153-1 1-.01176521 1.7167537.19967281 3.4277546.629 5.09-1.03323843.7510701-1.64294673 1.9526307-1.639 3.23v3c-.00001467 1.0645145.42429417 2.0851256 1.17898773 2.8358777.75469355.7507521 1.77751247 1.169711 2.84201227 1.1641223.0017892 3.3073079 1.4759215 6.4421298 4.022 8.553.6271679.5606008.9800123 1.3659034.967 2.207v2c.0076998 1.2490718-.7661889 2.369752-1.937 2.805l-9.75 3.72c-3.1916463 1.231069-5.30108504 4.2941821-5.313 7.715v3c0 .5522847.44771525 1 1 1h56c1.6568542 0 3-1.3431458 3-3v-2c0-1.6568542-1.3431458-3-3-3zm-17.942-7c1.0983591-.0071577 1.9838812-.9016244 1.98-2v-11c-.0094861-.5413963.4206425-.9885154.962-1h10.058c.5413575.0114846.9714861.4586037.962 1v11c-.004432 1.0986009.8814101 1.9933908 1.98 2h1.234l-9.234 8.631-9.234-8.631zm18.942 12c0 .5522847-.4477153 1-1 1h-20c-.5522847 0-1-.4477153-1-1v-2c0-.5522847.4477153-1 1-1h7.466l1.851 1.73c.384397.3594422.981603.3594422 1.366 0l1.851-1.73h7.466c.5522847 0 1 .4477153 1 1z"/></g></g></g></g></svg>